<svg width="1600" height="2600" viewBox="0 0 1600 2600" fill="none" xmlns="http://www.w3.org/2000/svg">
  <defs>
    <filter id="soft" x="-10%" y="-10%" width="120%" height="120%">
      <feGaussianBlur stdDeviation="1.4"/>
    </filter>
  </defs>

  <g opacity="0.32" stroke="#6D716F" stroke-linecap="round" stroke-linejoin="round" filter="url(#soft)">
    <path d="M800 0V320" stroke-width="2.4"/>
    <path d="M800 320C800 410 760 470 700 540C646 604 620 666 620 734" stroke-width="2.15"/>
    <path d="M800 320C800 410 840 470 900 540C954 604 980 666 980 734" stroke-width="2.15"/>

    <path d="M620 734C620 812 582 860 524 912C470 960 440 1016 440 1086" stroke-width="1.95"/>
    <path d="M620 734C620 804 654 850 708 900C762 950 790 1012 790 1080" stroke-width="1.95"/>
    <path d="M980 734C980 812 1018 860 1076 912C1130 960 1160 1016 1160 1086" stroke-width="1.95"/>
    <path d="M980 734C980 804 946 850 892 900C838 950 810 1012 810 1080" stroke-width="1.95"/>

    <path d="M440 1086C440 1152 408 1198 360 1242C314 1284 290 1332 290 1394" stroke-width="1.8"/>
    <path d="M440 1086C440 1148 474 1190 522 1232C570 1274 596 1322 596 1382" stroke-width="1.8"/>
    <path d="M790 1080C790 1148 754 1194 700 1238C646 1282 616 1332 616 1396" stroke-width="1.8"/>
    <path d="M790 1080C790 1140 826 1186 878 1230C930 1274 960 1322 960 1388" stroke-width="1.8"/>
    <path d="M810 1080C810 1148 846 1194 900 1238C954 1282 984 1332 984 1396" stroke-width="1.8"/>
    <path d="M810 1080C810 1140 774 1186 722 1230C670 1274 640 1322 640 1388" stroke-width="1.8"/>
    <path d="M1160 1086C1160 1152 1192 1198 1240 1242C1286 1284 1310 1332 1310 1394" stroke-width="1.8"/>
    <path d="M1160 1086C1160 1148 1126 1190 1078 1232C1030 1274 1004 1322 1004 1382" stroke-width="1.8"/>

    <path d="M290 1394C290 1454 262 1496 220 1532C180 1568 158 1610 158 1662" stroke-width="1.65"/>
    <path d="M290 1394C290 1454 320 1494 362 1530C404 1566 426 1608 426 1660" stroke-width="1.65"/>
    <path d="M596 1382C596 1446 564 1490 516 1528C468 1566 442 1612 442 1666" stroke-width="1.65"/>
    <path d="M596 1382C596 1442 628 1488 676 1526C724 1564 750 1610 750 1662" stroke-width="1.65"/>
    <path d="M616 1396C616 1454 586 1496 542 1534C498 1572 474 1616 474 1672" stroke-width="1.65"/>
    <path d="M640 1388C640 1448 672 1492 718 1528C764 1564 790 1608 790 1660" stroke-width="1.65"/>
    <path d="M960 1388C960 1448 928 1492 882 1528C836 1564 810 1608 810 1660" stroke-width="1.65"/>
    <path d="M984 1396C984 1454 1014 1496 1058 1534C1102 1572 1126 1616 1126 1672" stroke-width="1.65"/>
    <path d="M1004 1382C1004 1446 1036 1490 1084 1528C1132 1566 1158 1612 1158 1666" stroke-width="1.65"/>
    <path d="M1310 1394C1310 1454 1280 1494 1238 1530C1196 1566 1174 1608 1174 1660" stroke-width="1.65"/>
    <path d="M1310 1394C1310 1454 1338 1496 1380 1532C1420 1568 1442 1610 1442 1662" stroke-width="1.65"/>

    <path d="M158 1662C158 1716 186 1756 226 1790C266 1824 290 1868 290 1922" stroke-width="1.45"/>
    <path d="M426 1660C426 1718 396 1760 352 1796C308 1832 282 1878 282 1932" stroke-width="1.45"/>
    <path d="M442 1666C442 1722 472 1762 516 1798C560 1834 586 1880 586 1936" stroke-width="1.45"/>
    <path d="M474 1672C474 1724 448 1762 410 1794C372 1826 348 1868 348 1920" stroke-width="1.45"/>
    <path d="M750 1662C750 1718 720 1760 676 1796C632 1832 606 1878 606 1934" stroke-width="1.45"/>
    <path d="M790 1660C790 1716 818 1758 860 1792C902 1826 928 1868 928 1924" stroke-width="1.45"/>
    <path d="M810 1660C810 1716 782 1758 740 1792C698 1826 672 1868 672 1924" stroke-width="1.45"/>
    <path d="M1126 1672C1126 1724 1152 1762 1190 1794C1228 1826 1252 1868 1252 1920" stroke-width="1.45"/>
    <path d="M1158 1666C1158 1722 1128 1762 1084 1798C1040 1834 1014 1880 1014 1936" stroke-width="1.45"/>
    <path d="M1174 1660C1174 1718 1204 1760 1248 1796C1292 1832 1318 1878 1318 1932" stroke-width="1.45"/>
    <path d="M1442 1662C1442 1716 1414 1756 1374 1790C1334 1824 1310 1868 1310 1922" stroke-width="1.45"/>

    <path d="M290 1922C290 1980 320 2020 364 2058C408 2096 432 2144 432 2202" stroke-width="1.25"/>
    <path d="M282 1932C282 1986 254 2024 214 2058C174 2092 150 2138 150 2192" stroke-width="1.25"/>
    <path d="M586 1936C586 1992 556 2032 512 2068C468 2104 442 2150 442 2206" stroke-width="1.25"/>
    <path d="M606 1934C606 1988 634 2028 676 2062C718 2096 744 2140 744 2194" stroke-width="1.25"/>
    <path d="M672 1924C672 1984 642 2026 598 2064C554 2102 528 2148 528 2208" stroke-width="1.25"/>
    <path d="M928 1924C928 1984 958 2026 1002 2064C1046 2102 1072 2148 1072 2208" stroke-width="1.25"/>
    <path d="M1014 1936C1014 1992 1044 2032 1088 2068C1132 2104 1158 2150 1158 2206" stroke-width="1.25"/>
    <path d="M1252 1920C1252 1978 1222 2020 1178 2058C1134 2096 1110 2144 1110 2202" stroke-width="1.25"/>
    <path d="M1310 1922C1310 1980 1280 2020 1236 2058C1192 2096 1168 2144 1168 2202" stroke-width="1.25"/>
    <path d="M1318 1932C1318 1986 1346 2024 1386 2058C1426 2092 1450 2138 1450 2192" stroke-width="1.25"/>
  </g>

  <g opacity="0.2" stroke="#7C7F7D" stroke-width="1.1" fill="none">
    <circle cx="150" cy="2192" r="18"/>
    <circle cx="150" cy="2192" r="7"/>
    <path d="M150 2166V2218M124 2192H176M132 2174L168 2210M168 2174L132 2210"/>

    <circle cx="432" cy="2202" r="20"/>
    <circle cx="432" cy="2202" r="8"/>
    <path d="M432 2174V2230M404 2202H460M411 2181L453 2223M453 2181L411 2223"/>

    <circle cx="442" cy="2206" r="16"/>
    <circle cx="442" cy="2206" r="6"/>
    <path d="M442 2184V2228M420 2206H464"/>

    <circle cx="528" cy="2208" r="22"/>
    <circle cx="528" cy="2208" r="8"/>
    <path d="M528 2178V2238M498 2208H558M506 2186L550 2230M550 2186L506 2230"/>

    <circle cx="744" cy="2194" r="18"/>
    <circle cx="744" cy="2194" r="7"/>
    <path d="M744 2168V2220M718 2194H770M726 2176L762 2212M762 2176L726 2212"/>

    <circle cx="1072" cy="2208" r="22"/>
    <circle cx="1072" cy="2208" r="8"/>
    <path d="M1072 2178V2238M1042 2208H1102M1050 2186L1094 2230M1094 2186L1050 2230"/>

    <circle cx="1110" cy="2202" r="20"/>
    <circle cx="1110" cy="2202" r="8"/>
    <path d="M1110 2174V2230M1082 2202H1138M1089 2181L1131 2223M1131 2181L1089 2223"/>

    <circle cx="1168" cy="2202" r="18"/>
    <circle cx="1168" cy="2202" r="7"/>
    <path d="M1168 2176V2228M1142 2202H1194M1150 2184L1186 2220M1186 2184L1150 2220"/>

    <circle cx="1450" cy="2192" r="18"/>
    <circle cx="1450" cy="2192" r="7"/>
    <path d="M1450 2166V2218M1424 2192H1476M1432 2174L1468 2210M1468 2174L1432 2210"/>
  </g>
</svg>
